<svg xmlns="http://www.w3.org/2000/svg" viewBox="0 0 980 1120" role="img" aria-label="Portfolio interface visual">
  <defs>
    <linearGradient id="screen" x1="0" y1="0" x2="1" y2="1">
      <stop offset="0" stop-color="#ffffff"/>
      <stop offset="1" stop-color="#eef5ff"/>
    </linearGradient>
    <filter id="shadow" x="-20%" y="-20%" width="140%" height="140%">
      <feDropShadow dx="0" dy="28" stdDeviation="26" flood-color="#161b22" flood-opacity=".13"/>
    </filter>
  </defs>
  <rect width="980" height="1120" rx="28" fill="#f3f6f9"/>
  <circle cx="792" cy="166" r="132" fill="#2563eb" opacity=".11"/>
  <circle cx="172" cy="922" r="164" fill="#147b64" opacity=".1"/>
  <g filter="url(#shadow)">
    <rect x="96" y="96" width="788" height="520" rx="28" fill="url(#screen)" stroke="#d9dee7"/>
    <rect x="142" y="146" width="154" height="18" rx="9" fill="#2563eb"/>
    <rect x="142" y="196" width="450" height="38" rx="19" fill="#161b22"/>
    <rect x="142" y="256" width="352" height="18" rx="9" fill="#66717f" opacity=".45"/>
    <rect x="142" y="294" width="418" height="18" rx="9" fill="#66717f" opacity=".28"/>
    <rect x="142" y="374" width="196" height="112" rx="16" fill="#ffffff" stroke="#d9dee7"/>
    <rect x="374" y="374" width="196" height="112" rx="16" fill="#ffffff" stroke="#d9dee7"/>
    <rect x="606" y="374" width="196" height="112" rx="16" fill="#ffffff" stroke="#d9dee7"/>
    <circle cx="190" cy="430" r="26" fill="#147b64"/>
    <circle cx="422" cy="430" r="26" fill="#b7791f"/>
    <circle cx="654" cy="430" r="26" fill="#c2415d"/>
    <rect x="224" y="414" width="82" height="14" rx="7" fill="#161b22"/>
    <rect x="224" y="442" width="66" height="12" rx="6" fill="#66717f" opacity=".4"/>
    <rect x="456" y="414" width="82" height="14" rx="7" fill="#161b22"/>
    <rect x="456" y="442" width="66" height="12" rx="6" fill="#66717f" opacity=".4"/>
    <rect x="688" y="414" width="82" height="14" rx="7" fill="#161b22"/>
    <rect x="688" y="442" width="66" height="12" rx="6" fill="#66717f" opacity=".4"/>
  </g>
  <g filter="url(#shadow)">
    <rect x="132" y="676" width="326" height="306" rx="28" fill="#161b22"/>
    <rect x="178" y="734" width="126" height="18" rx="9" fill="#ffffff"/>
    <rect x="178" y="790" width="226" height="16" rx="8" fill="#ffffff" opacity=".58"/>
    <rect x="178" y="830" width="172" height="16" rx="8" fill="#ffffff" opacity=".38"/>
    <rect x="178" y="892" width="92" height="42" rx="9" fill="#2563eb"/>
    <rect x="288" y="892" width="92" height="42" rx="9" fill="#ffffff"/>
  </g>
  <g filter="url(#shadow)">
    <rect x="516" y="668" width="332" height="338" rx="42" fill="#ffffff" stroke="#d9dee7"/>
    <rect x="562" y="726" width="240" height="48" rx="14" fill="#edf4f1"/>
    <rect x="562" y="806" width="240" height="48" rx="14" fill="#eef5ff"/>
    <rect x="562" y="886" width="150" height="48" rx="14" fill="#fff7e6"/>
    <circle cx="756" cy="910" r="48" fill="#147b64"/>
    <path d="M734 910l17 17 31-40" fill="none" stroke="#ffffff" stroke-width="12" stroke-linecap="round" stroke-linejoin="round"/>
  </g>
</svg>
